<svg id="Layer_1" data-name="Layer 1" xmlns="http://www.w3.org/2000/svg" viewBox="0 0 512 512"><defs><style>.cls-1{fill:#7171c7;}.cls-2{fill:#313133;}.cls-3{fill:#f7f7ff;}</style></defs><rect class="cls-1" width="512" height="512"/><rect class="cls-2" x="15" y="16" width="478" height="478"/><path class="cls-3" d="M425,55V97H128.18V441.36H66.51V55Z"/><path class="cls-1" d="M281.45,445.05a119.86,119.86,0,0,1-57.87-14.83q-27.45-14.84-44.44-44.2t-17-72.35V137.48h44.75v175q0,41.18,23.56,66.3t60,25.12q25.05,0,45.34-11.8a90.12,90.12,0,0,0,32.51-32.39q12.22-20.58,12.23-47.84V137.48h44.74V440.21H380.48V393a150.47,150.47,0,0,1-39.37,36.94Q317.85,445.05,281.45,445.05Z"/></svg>